ffmpeg version N-35509-gfd36cbf-Sherpya, Copyright (c) 2000-2011 the FFmpeg developers
  built on Dec  7 2011 06:17:11 with gcc 4.6.2
  libavutil    51. 30. 0 / 51. 30. 0
  libavcodec   53. 41. 0 / 53. 41. 0
  libavformat  53. 24. 0 / 53. 24. 0
  libavdevice  53.  4. 0 / 53.  4. 0
  libavfilter   2. 51. 0 /  2. 51. 0
  libswscale    2.  1. 0 /  2.  1. 0
  libpostproc  51.  2. 0 / 51.  2. 0
[wav @ 00358a80] parser not found for codec pcm_s16le, packets or times may be invalid.
Input #0, wav, from './recorderFile/userRecord.wav':
  Duration: 00:00:03.39, bitrate: 705 kb/s
    Stream #0:0: Audio: pcm_s16le ([1][0][0][0] / 0x0001), 44100 Hz, 1 channels, s16, 705 kb/s
Output #0, wav, to './userRecord.wav':
  Metadata:
    encoder         : Lavf53.24.0
    Stream #0:0: Audio: pcm_s16le ([1][0][0][0] / 0x0001), 16000 Hz, 1 channels, s16, 256 kb/s
Stream mapping:
  Stream #0:0 -> #0:0 (pcm_s16le -> pcm_s16le)
Press [q] to stop, [?] for help
size=     106kB time=00:00:03.38 bitrate= 256.1kbits/s    
video:0kB audio:106kB global headers:0kB muxing overhead 0.042410%
